<?xml version="1.0" encoding="utf-8"?>
<!-- Generator: Adobe Illustrator 17.0.0, SVG Export Plug-In . SVG Version: 6.00 Build 0)  -->
<!DOCTYPE svg PUBLIC "-//W3C//DTD SVG 1.1//EN" "http://www.w3.org/Graphics/SVG/1.1/DTD/svg11.dtd">
<svg version="1.1" id="Layer_1" xmlns="http://www.w3.org/2000/svg" xmlns:xlink="http://www.w3.org/1999/xlink" x="0px" y="0px"
	 width="75px" height="75px" viewBox="0 0 75 75" enable-background="new 0 0 75 75" xml:space="preserve">
<polygon fill-rule="evenodd" clip-rule="evenodd" fill="#CCCCCC" points="55.939,4.995 74,37.255 55.939,69.515 19.817,69.515 
	1.755,37.255 19.817,4.995 "/>
<path fill-rule="evenodd" clip-rule="evenodd" fill="#FFFFFF" d="M34.714,58.558c-0.695-13.869-9.773-27.655-8.252-41.611
	c2.59,0.781,2.375-1.333,4.584-0.946c0.526,2.669-1.798,4.18-1.834,6.62c-0.064,4.444,3.362,8.377,6.419,10.404
	c0.462,3.6,1.243,5.409,3.669,8.511c2.269,2.901,2.432,4.988,7.337,4.728c-0.293,2.221-1.45,3.55-0.918,6.621
	c0.165,1.523,4.359-1.54,3.669,2.837C44.004,56.157,40.26,58.287,34.714,58.558z"/>
</svg>
